<?xml version="1.0" encoding="utf-8"?>
<!-- Generator: Adobe Illustrator 16.0.0, SVG Export Plug-In . SVG Version: 6.00 Build 0)  -->
<!DOCTYPE svg PUBLIC "-//W3C//DTD SVG 1.1//EN" "http://www.w3.org/Graphics/SVG/1.1/DTD/svg11.dtd">
<svg version="1.1" id="Layer_1" xmlns="http://www.w3.org/2000/svg" xmlns:xlink="http://www.w3.org/1999/xlink" x="0px" y="0px"
	 width="450.068px" height="280.886px" viewBox="0 0 450.068 280.886" enable-background="new 0 0 450.068 280.886"
	 xml:space="preserve">
<g>
	<g>
		<path fill="#FFFFFF" d="M147.73,202.075l-3.285,4.209l3.088,2.41l3.375-4.324c0.393-0.879,0.186-1.648-0.623-2.313
			C149.352,201.358,148.5,201.364,147.73,202.075z"/>
		<polygon fill="#FFFFFF" points="182.228,169.132 176.422,167.745 179.211,172.997 		"/>
		<path fill="#FFFFFF" d="M205.914,127.53l-3.285,4.21l3.088,2.409l3.375-4.324c0.393-0.878,0.186-1.649-0.623-2.311
			C207.535,126.816,206.683,126.822,205.914,127.53z"/>
		<path fill="#FFFFFF" d="M114.326,253.134c-1.149-0.898-2.321-1.404-3.517-1.521s-2.246,0.404-3.151,1.563
			c-0.964,1.236-1.264,2.455-0.899,3.654c0.364,1.203,1.111,2.244,2.241,3.127c0.939,0.732,2.083,1.17,3.435,1.316
			c1.351,0.146,2.512-0.404,3.483-1.65c0.905-1.158,1.148-2.309,0.73-3.453C116.23,255.026,115.457,254.015,114.326,253.134z"/>
		<polygon fill="#FFFFFF" points="141.392,221.448 135.587,220.06 138.376,225.312 		"/>
		<polygon fill="#FFFFFF" points="233.753,103.119 227.947,101.732 230.736,106.984 		"/>
		<path fill="#FFFFFF" d="M220.454,0H0v82.498h154.632L0,280.886h104.698L259.147,82.498L220.454,0z M220.814,113.358l3.074,2.4
			l-7.848,10.055l-3.074-2.399L220.814,113.358z M216.532,107.473l1.898,4.024l-7.85,10.055l-3.131-2.444L216.532,107.473z
			 M105.758,278.948l-11.262-8.791l-3.364,4.311l-3.088-2.412l10.102-12.941l1.957,3.861l-2.803,3.592l11.263,8.791L105.758,278.948
			z M118.818,262.185c-1.772,2.271-3.84,3.506-6.204,3.701c-2.365,0.195-4.567-0.502-6.607-2.096
			c-2.145-1.674-3.35-3.703-3.614-6.09c-0.264-2.389,0.423-4.629,2.06-6.727c1.712-2.193,3.738-3.428,6.081-3.703
			s4.585,0.424,6.73,2.098c2.146,1.674,3.388,3.658,3.726,5.947C121.328,257.608,120.604,259.897,118.818,262.185z M130.258,247.562
			l-19.117-5.098l2.982-3.82l19.049,5.182L130.258,247.562z M135.427,240.937l-19.217-4.965l2.982-3.822l10.804,2.863l-5.145-10.143
			l2.982-3.82l5.524,10.691l-2.68,3.434l7.663,2.027L135.427,240.937z M149.171,223.358l-3.494-0.855l-3.017,3.863l-3.767-0.119
			l3.224,6.146l-3.083,3.949l-9.372-17.578l3.14-4.021l19.34,4.809L149.171,223.358z M159.675,209.872l-11.377-0.559l7.341,5.73
			l-2.792,3.578l-14.336-11.191l6.414-8.217c1.104-1.295,2.406-2.041,3.905-2.234c1.5-0.193,2.948,0.256,4.347,1.348
			c2.328,1.895,2.94,4.129,1.838,6.705l8.069,0.475L159.675,209.872z M169.236,197.62l-5.494,7.041l-8.677-6.773l2.781-3.563
			l5.559,4.34l2.254-2.887c1.397-1.793,0.73-3.76-2.001-5.908c-2.713-2.072-4.906-2.027-6.579,0.135l-3.554,4.555l-4.261-0.969
			l5.146-6.594c3.728-4.023,7.808-4.314,12.24-0.873C171.095,189.593,171.956,193.425,169.236,197.62z M190.007,171.042
			l-3.494-0.855l-3.017,3.865l-3.767-0.121l3.225,6.146l-3.083,3.951l-9.373-17.58l3.14-4.021l19.34,4.811L190.007,171.042z
			 M205.255,151.476l-5.494,7.039l-8.677-6.771l2.782-3.563l5.559,4.34l2.254-2.889c1.397-1.791,0.731-3.76-2-5.906
			c-2.713-2.072-4.906-2.027-6.579,0.136l-3.554,4.552l-4.261-0.967l5.146-6.593c3.728-4.026,7.808-4.318,12.24-0.872
			C207.114,143.448,207.975,147.281,205.255,151.476z M217.858,135.329l-11.377-0.558l7.341,5.73l-2.792,3.575l-14.337-11.189
			l6.414-8.217c1.104-1.295,2.405-2.041,3.905-2.235c1.5-0.192,2.948,0.257,4.347,1.349c2.328,1.893,2.941,4.128,1.839,6.706
			l8.069,0.472L217.858,135.329z M221.786,130.298l-3.117-2.433l8.52-10.918l3.117,2.434L221.786,130.298z M241.532,105.029
			l-3.493-0.855l-3.018,3.865l-3.767-0.121l3.225,6.146l-3.083,3.952l-9.372-17.581l3.14-4.021l19.34,4.809L241.532,105.029z
			 M245.154,100.358l-14.366-11.212l2.791-3.577l13.354,0.69l-2.781,3.564l-5.346-0.198l9.149,7.142L245.154,100.358z
			 M245.781,81.43l-3.018,3.865l-2.532-8.218l2.793-3.577l14.351,11.2l-2.803,3.593L245.781,81.43z"/>
	</g>
	<polygon fill="#FFFFFF" points="367.57,0 267.004,0 305.699,82.498 367.57,82.498 367.57,198.388 277.355,198.388 255.366,161.233 
		161.871,280.886 180.968,280.886 367.57,280.886 450.068,280.886 450.068,198.388 450.068,82.498 450.068,0 	"/>
</g>
</svg>
