<svg xmlns="http://www.w3.org/2000/svg" width="450" height="281" viewBox="0 0 450.1 280.9"><path d="M147.7 202.1l-3.3 4.2 3.1 2.4 3.4-4.3c0.4-0.9 0.2-1.6-0.6-2.3C149.4 201.4 148.5 201.4 147.7 202.1z"/><polygon points="182.2 169.1 176.4 167.7 179.2 173 "/><path d="M205.9 127.5l-3.3 4.2 3.1 2.4 3.4-4.3c0.4-0.9 0.2-1.6-0.6-2.3C207.5 126.8 206.7 126.8 205.9 127.5z"/><path d="M114.3 253.1c-1.1-0.9-2.3-1.4-3.5-1.5s-2.2 0.4-3.2 1.6c-1 1.2-1.3 2.5-0.9 3.7 0.4 1.2 1.1 2.2 2.2 3.1 0.9 0.7 2.1 1.2 3.4 1.3 1.4 0.1 2.5-0.4 3.5-1.6 0.9-1.2 1.1-2.3 0.7-3.5C116.2 255 115.5 254 114.3 253.1z"/><polygon points="141.4 221.4 135.6 220.1 138.4 225.3 "/><polygon points="233.8 103.1 227.9 101.7 230.7 107 "/><path d="M220.5 0H0v82.5h154.6L0 280.9h104.7L259.1 82.5 220.5 0zM220.8 113.4l3.1 2.4 -7.8 10.1 -3.1-2.4L220.8 113.4zM216.5 107.5l1.9 4 -7.8 10.1 -3.1-2.4L216.5 107.5zM105.8 278.9l-11.3-8.8 -3.4 4.3 -3.1-2.4 10.1-12.9 2 3.9 -2.8 3.6 11.3 8.8L105.8 278.9zM118.8 262.2c-1.8 2.3-3.8 3.5-6.2 3.7 -2.4 0.2-4.6-0.5-6.6-2.1 -2.1-1.7-3.3-3.7-3.6-6.1 -0.3-2.4 0.4-4.6 2.1-6.7 1.7-2.2 3.7-3.4 6.1-3.7s4.6 0.4 6.7 2.1c2.1 1.7 3.4 3.7 3.7 5.9C121.3 257.6 120.6 259.9 118.8 262.2zM130.3 247.6l-19.1-5.1 3-3.8 19 5.2L130.3 247.6zM135.4 240.9l-19.2-5 3-3.8 10.8 2.9 -5.1-10.1 3-3.8 5.5 10.7 -2.7 3.4 7.7 2L135.4 240.9zM149.2 223.4l-3.5-0.9 -3 3.9 -3.8-0.1 3.2 6.1 -3.1 3.9 -9.4-17.6 3.1-4 19.3 4.8L149.2 223.4zM159.7 209.9l-11.4-0.6 7.3 5.7 -2.8 3.6 -14.3-11.2 6.4-8.2c1.1-1.3 2.4-2 3.9-2.2 1.5-0.2 2.9 0.3 4.3 1.3 2.3 1.9 2.9 4.1 1.8 6.7l8.1 0.5L159.7 209.9zM169.2 197.6l-5.5 7 -8.7-6.8 2.8-3.6 5.6 4.3 2.3-2.9c1.4-1.8 0.7-3.8-2-5.9 -2.7-2.1-4.9-2-6.6 0.1l-3.6 4.6 -4.3-1 5.1-6.6c3.7-4 7.8-4.3 12.2-0.9C171.1 189.6 172 193.4 169.2 197.6zM190 171l-3.5-0.9 -3 3.9 -3.8-0.1 3.2 6.1 -3.1 4 -9.4-17.6 3.1-4 19.3 4.8L190 171zM205.3 151.5l-5.5 7 -8.7-6.8 2.8-3.6 5.6 4.3 2.3-2.9c1.4-1.8 0.7-3.8-2-5.9 -2.7-2.1-4.9-2-6.6 0.1l-3.6 4.6 -4.3-1 5.1-6.6c3.7-4 7.8-4.3 12.2-0.9C207.1 143.4 208 147.3 205.3 151.5zM217.9 135.3l-11.4-0.6 7.3 5.7 -2.8 3.6 -14.3-11.2 6.4-8.2c1.1-1.3 2.4-2 3.9-2.2 1.5-0.2 2.9 0.3 4.3 1.3 2.3 1.9 2.9 4.1 1.8 6.7l8.1 0.5L217.9 135.3zM221.8 130.3l-3.1-2.4 8.5-10.9 3.1 2.4L221.8 130.3zM241.5 105l-3.5-0.9 -3 3.9 -3.8-0.1 3.2 6.1 -3.1 4 -9.4-17.6 3.1-4 19.3 4.8L241.5 105zM245.2 100.4l-14.4-11.2 2.8-3.6 13.4 0.7 -2.8 3.6 -5.3-0.2 9.1 7.1L245.2 100.4zM245.8 81.4l-3 3.9 -2.5-8.2 2.8-3.6 14.4 11.2 -2.8 3.6L245.8 81.4z"/><polygon points="367.6 0 267 0 305.7 82.5 367.6 82.5 367.6 198.4 277.4 198.4 255.4 161.2 161.9 280.9 181 280.9 367.6 280.9 450.1 280.9 450.1 198.4 450.1 82.5 450.1 0 "/></svg>